# xmcd
#
# Track frame offsets:
#	150
#	19119
#	42255
#	59190
#	79842
#	94142
#	128072
#	149294
#	171152
#	192484
#	216319
#	233382
#	246907
#
# Disc length: 3518 seconds
#
# Revision: 1
# Processed by: cddbd v1.5.1PL0 Copyright (c) Steve Scherf et al.
# Submitted via: CDmax 2.0
#
DISCID=ba0dbc0d
DTITLE=Blechgitarr Vinz - Da Blues is de Polka
DYEAR=2000
DGENRE=Blues
TTITLE0=De Blues Is De Polka
TTITLE1=Kampnwand
TTITLE2=Passivraucher
TTITLE3=Gschenk
TTITLE4=Gfrett
TTITLE5=Fischner Kircherl
TTITLE6=Börsengang
TTITLE7=Fünftes Gebot
TTITLE8=Gelegenheit
TTITLE9=Sehnsucht
TTITLE10='S Deandl Ruaft Ned O
TTITLE11=If I Could Shimmy Like My Sister Kate
TTITLE12=Pfiad Eich
EXTD=
EXTT0=
EXTT1=
EXTT2=
EXTT3=
EXTT4=
EXTT5=
EXTT6=
EXTT7=
EXTT8=
EXTT9=
EXTT10=
EXTT11=
EXTT12=
PLAYORDER=
